<svg aria-hidden="true" style="position: absolute; width: 0; height: 0; overflow: hidden;" version="1.1" xmlns="http://www.w3.org/2000/svg" xmlns:xlink="http://www.w3.org/1999/xlink">
<defs>
<symbol id="icon-close" viewBox="0 0 24 24">
<path d="M3.984 5.016v13.969h8.016v2.016h-8.016q-0.797 0-1.383-0.609t-0.586-1.406v-13.969q0-0.797 0.586-1.406t1.383-0.609h8.016v2.016h-8.016zM17.016 6.984l4.969 5.016-4.969 5.016-1.406-1.453 2.578-2.578h-10.172v-1.969h10.172l-2.578-2.625z"></path>
</symbol>
<symbol id="icon-menu" viewBox="0 0 24 24">
<path d="M19 18c0.55 0 1 0.45 1 1s-0.45 1-1 1h-14c-0.55 0-1-0.45-1-1s0.45-1 1-1h14zM19 16h-14c-1.654 0-3 1.346-3 3s1.346 3 3 3h14c1.654 0 3-1.346 3-3s-1.346-3-3-3z"></path>
<path d="M19 11c0.55 0 1 0.45 1 1s-0.45 1-1 1h-14c-0.55 0-1-0.45-1-1s0.45-1 1-1h14zM19 9h-14c-1.654 0-3 1.346-3 3s1.346 3 3 3h14c1.654 0 3-1.346 3-3s-1.346-3-3-3z"></path>
<path d="M19 4c0.55 0 1 0.45 1 1s-0.45 1-1 1h-14c-0.55 0-1-0.45-1-1s0.45-1 1-1h14zM19 2h-14c-1.654 0-3 1.346-3 3s1.346 3 3 3h14c1.654 0 3-1.346 3-3s-1.346-3-3-3z"></path>
</symbol>
</defs>
</svg>
